/* XPM */
static char * bitcoin32_xpm[] = {
"32 32 234 2",
"  	c None",
". 	c #71DD6D",
"+ 	c #6CD168",
"@ 	c #68C765",
"# 	c #64BC61",
"$ 	c #60B45D",
"% 	c #5DAC5B",
"& 	c #5AA457",
"* 	c #579C55",
"= 	c #86B784",
"- 	c #8ABA89",
"; 	c #87B885",
"> 	c #70DC6C",
", 	c #6CD068",
"' 	c #68C665",
") 	c #64BB61",
"! 	c #60B35D",
"~ 	c #5DAB5B",
"{ 	c #5AA357",
"] 	c #80B37F",
"^ 	c #A8D2A7",
"/ 	c #ABD9A9",
"( 	c #A5D7A3",
"_ 	c #A1D7A0",
": 	c #A0D79E",
"< 	c #A1D6A0",
"[ 	c #A7D8A5",
"} 	c #A6D2A5",
"| 	c #82B481",
"1 	c #9DCA9C",
"2 	c #A9D9A8",
"3 	c #A0D69E",
"4 	c #97D496",
"5 	c #91D290",
"6 	c #8ED18C",
"7 	c #8DD08A",
"8 	c #8ED08C",
"9 	c #91D18F",
"0 	c #98D395",
"a 	c #A2D7A1",
"b 	c #6EB06C",
"c 	c #61B35D",
"d 	c #5EAC5B",
"e 	c #A6D1A5",
"f 	c #9AD598",
"g 	c #8FD18D",
"h 	c #84D081",
"i 	c #89CF86",
"j 	c #97CF95",
"k 	c #83D081",
"l 	c #84CF81",
"m 	c #85CE82",
"n 	c #88CE85",
"o 	c #77C374",
"p 	c #9CC99B",
"q 	c #A8D9A6",
"r 	c #8CD28A",
"s 	c #90CE8E",
"t 	c #E4ECE3",
"u 	c #8ACD88",
"v 	c #FFFFFF",
"w 	c #72CD6E",
"x 	c #7ED17C",
"y 	c #81D07F",
"z 	c #82CF80",
"A 	c #85CE83",
"B 	c #6FC26C",
"C 	c #63BB60",
"D 	c #5BA759",
"E 	c #61B45D",
"F 	c #7EB17D",
"G 	c #ACDAAA",
"H 	c #9ED69C",
"I 	c #8ED28C",
"J 	c #86D183",
"K 	c #78CF75",
"L 	c #FFFDFF",
"M 	c #86CD84",
"N 	c #FFF9FF",
"O 	c #D1E7D0",
"P 	c #D3E7D2",
"Q 	c #99D797",
"R 	c #7FD17C",
"S 	c #84D082",
"T 	c #67C164",
"U 	c #63B960",
"V 	c #A5D1A4",
"W 	c #A7D9A5",
"X 	c #96D594",
"Y 	c #85D183",
"Z 	c #B1D8B0",
"` 	c #D0E5CF",
" .	c #F9FAF9",
"..	c #ECF9EB",
"+.	c #E4F6E3",
"@.	c #87D585",
"#.	c #7CCF79",
"$.	c #65C261",
"%.	c #65BE62",
"&.	c #64BB60",
"*.	c #AEDBAD",
"=.	c #A2D8A0",
"-.	c #90D38D",
";.	c #D7EBD6",
">.	c #DBF1DA",
",.	c #C2EDC1",
"'.	c #70D66C",
").	c #6ED66A",
"!.	c #CDE9CC",
"~.	c #A0DF9E",
"{.	c #6FCB6C",
"].	c #67C464",
"^.	c #65C162",
"/.	c #64BD61",
"(.	c #61B75F",
"_.	c #81B47F",
":.	c #ACDAAB",
"<.	c #9ED79C",
"[.	c #8CD38A",
"}.	c #85D282",
"|.	c #7ED37C",
"1.	c #7AD176",
"2.	c #FFFEFF",
"3.	c #F9FDF9",
"4.	c #62D95D",
"5.	c #79D475",
"6.	c #EEF1EE",
"7.	c #FDFDFD",
"8.	c #70CE6C",
"9.	c #68CA65",
"0.	c #68C664",
"a.	c #66C163",
"b.	c #63BA60",
"c.	c #579D55",
"d.	c #85B883",
"e.	c #ABDBAA",
"f.	c #9DD79C",
"g.	c #8CD388",
"h.	c #85D382",
"i.	c #81D57E",
"j.	c #77D774",
"k.	c #E9F0E9",
"l.	c #EDEEED",
"m.	c #FCFEFC",
"n.	c #8FD78D",
"o.	c #69C765",
"p.	c #66C263",
"q.	c #64BE62",
"r.	c #59A056",
"s.	c #85B783",
"t.	c #ACDBAA",
"u.	c #9FD89D",
"v.	c #8DD38B",
"w.	c #85D482",
"x.	c #81D57F",
"y.	c #7ED87B",
"z.	c #C2E6C1",
"A.	c #BBEFB9",
"B.	c #69DC65",
"C.	c #67D763",
"D.	c #AAE0A8",
"E.	c #E8F6E7",
"F.	c #62C55E",
"G.	c #76AF74",
"H.	c #B0DDAE",
"I.	c #A4D9A1",
"J.	c #91D48F",
"K.	c #86D383",
"L.	c #83D581",
"M.	c #80D77D",
"N.	c #9FDA9D",
"O.	c #CCF1CA",
"P.	c #72DA6E",
"Q.	c #AAD8A8",
"R.	c #D7F1D6",
"S.	c #64C561",
"T.	c #76C073",
"U.	c #94D192",
"V.	c #98D797",
"W.	c #8ED68C",
"X.	c #88D686",
"Y.	c #83D780",
"Z.	c #73D170",
"`.	c #F6FDF6",
" +	c #A1D99F",
".+	c #D7E7D6",
"++	c #FDFEFD",
"@+	c #75CD72",
"#+	c #68C564",
"$+	c #62BA5F",
"%+	c #60BD5D",
"&+	c #63C15F",
"*+	c #66C562",
"=+	c #64C761",
"-+	c #D2E2D1",
";+	c #F3FDF2",
">+	c #FEFDFF",
",+	c #AAE2A8",
"'+	c #63C760",
")+	c #66C363",
"!+	c #61B45E",
"~+	c #65C062",
"{+	c #67C363",
"]+	c #62C45F",
"^+	c #CCE7CB",
"/+	c #9CDC99",
"(+	c #DDEDDC",
"_+	c #95DB93",
":+	c #CEE6CE",
"<+	c #A6DEA4",
"[+	c #65C462",
"}+	c #AEDAAD",
"|+	c #B5E4B4",
"1+	c #86CE83",
"2+	c #82CF7E",
"3+	c #5EAB5A",
"4+	c #60C15C",
"5+	c #62C15F",
"6+	c #66C162",
"7+	c #59A357",
"8+	c #5DAC5A",
"9+	c #62B75F",
"0+	c #579B55",
"a+	c #51954F",
"b+	c #589F55",
"c+	c #579F54",
"d+	c #51964F",
"e+	c #797A80",
"f+	c #606367",
"g+	c #575C5D",
"h+	c #A2A8A9",
"i+	c #8F9496",
"j+	c #949A9A",
"k+	c #868C8E",
"                                                                ",
"                                                                ",
"                                                                ",
"                                                                ",
"                                                                ",
"                                                                ",
". + @ # $ % & *             = - - ;             * & % $ # @ + . ",
"> , ' ) ! ~ {         ] ^ / ( _ : < [ } |         { ~ ! ) ' , > ",
"> , ' ) ! ~         1 2 3 4 5 6 7 8 9 0 a b         ~ ! ) ' , > ",
"> , ' ) c d       e [ f g h i j k l m n g o d       d c ) ' , > ",
"> , ' ) !       p q f r s t u v w x y z A B C D       ! ) ' , > ",
"> , ' ) E     F G H I J K L M N O P Q R S T # U *     E ) ' , > ",
"> , ' )       V W X Y Z `  .v ..+.v v @.#.$.%.C %       ) ' , > ",
"> , ' &.      *.=.-.R ;.>.v ,.'.).!.v ~.{.].^./.(.      &.' , > ",
"> , ' #     _.:.<.[.}.|.1.2.3.4.5.6.7.8.9.0.a./.b.c.    # ' , > ",
"> , ' #     d.e.f.g.h.i.j.k.v l.v m.v v n.o.p.q.C r.    # ' , > ",
"> , ' #     s.t.u.v.w.x.y.z.v A.B.C.D.v E.F.p.q.C r.    # ' , > ",
"> , ' #     G.H.I.J.K.L.M.N.v O.P.C.Q.v R.S.a./.b.c.    # ' , > ",
"> , ' &.      T.U.V.W.X.Y.Z.2.`. +.+v ++@+#+^./.(.      &.' , > ",
"> , ' )       d $+%+&+*+=+-+v v ;+>+,+'+' )+%.C d       ) ' , > ",
"> , ' ) !+    c.U # ~+{+]+^+/+(+_+:+<+' {+~+# U *     !+) ' , > ",
"> , ' ) !       D b./.~+)+[+o.}+|+1+2+p.~+/.b.D       ! ) ' , > ",
"> , ' ) c d       3+b.# %.^.a.4+5+T 6+%.# b.3+      d c ) ' , > ",
"> , ' ) ! ~         D U C /./.q.q././.C U D         ~ ! ) ' , > ",
"> , ' ) ! ~ 7+        * 8+9+b.C C b.9+d *         7+~ ! ) ' , > ",
"> + ' # $ ~ { 0+            a+b+c+d+            0+{ ~ $ # ' + > ",
"                                e+f+g+                          ",
"                        h+i+j+        k+                        ",
"                                                                ",
"                                                                ",
"                                                                ",
"                                                                "};
