/* XPM */
static char *bitcoin16[] = {
/* columns rows colors chars-per-pixel */
"16 16 231 2 ",
"   c #383B3A",
".  c #004900",
"X  c #0A4E08",
"o  c #0F5600",
"O  c #1B5D08",
"+  c #076100",
"@  c #046300",
"#  c #186408",
"$  c #1C6B0F",
"%  c #1D6C0D",
"&  c #017F00",
"*  c #15720B",
"=  c #187A0A",
"-  c #176315",
";  c #176616",
":  c #156913",
">  c #166C14",
",  c #1B6F17",
"<  c #157113",
"1  c #157313",
"2  c #157114",
"3  c #157015",
"4  c #167015",
"5  c #167115",
"6  c #157314",
"7  c #177314",
"8  c #167215",
"9  c #157414",
"0  c #157415",
"q  c #177514",
"w  c #177516",
"e  c #177616",
"r  c #177716",
"t  c #187015",
"y  c #187317",
"u  c #187716",
"i  c #187617",
"p  c #197717",
"a  c #147814",
"s  c #157915",
"d  c #167816",
"f  c #167916",
"g  c #177E15",
"h  c #187816",
"j  c #197816",
"k  c #187817",
"l  c #197817",
"z  c #197917",
"x  c #1A7B17",
"c  c #197C17",
"v  c #1A7C17",
"b  c #1A7D17",
"n  c #1D7D17",
"m  c #1A7D18",
"M  c #1C7F19",
"N  c #256D15",
"B  c #256C17",
"V  c #29671C",
"C  c #246F18",
"Z  c #207515",
"A  c #237A13",
"S  c #217E12",
"D  c #247E15",
"F  c #277019",
"G  c #27701A",
"H  c #237B19",
"J  c #2A7E1B",
"K  c #1F4921",
"L  c #305532",
"P  c #2D7220",
"I  c #387937",
"U  c #574D58",
"Y  c #5A605D",
"T  c #655C69",
"R  c #626665",
"E  c #78727D",
"W  c #787E7B",
"Q  c #008600",
"!  c #048400",
"~  c #0A8701",
"^  c #0E8D07",
"/  c #14850A",
"(  c #158808",
")  c #178809",
"_  c #0F9E06",
"`  c #1E8710",
"'  c #198A13",
"]  c #198B17",
"[  c #1C8019",
"{  c #1C8119",
"}  c #1C8219",
"|  c #1F871B",
" . c #169411",
".. c #189510",
"X. c #1C9611",
"o. c #1F9711",
"O. c #1D9912",
"+. c #189C11",
"@. c #1A9C10",
"#. c #189D12",
"$. c #1B9F13",
"%. c #1B9A14",
"&. c #1C9A14",
"*. c #1A9E14",
"=. c #1B911A",
"-. c #1F9B1A",
";. c #1C9E18",
":. c #238813",
">. c #238915",
",. c #208E16",
"<. c #268D16",
"1. c #288E17",
"2. c #2E851A",
"3. c #2D871B",
"4. c #208D19",
"5. c #248C1A",
"6. c #25881E",
"7. c #288818",
"8. c #2D8819",
"9. c #2C881B",
"0. c #2E881B",
"q. c #2B8D1A",
"w. c #33841F",
"e. c #239E17",
"r. c #209018",
"t. c #25971D",
"y. c #2A9619",
"u. c #2A951B",
"i. c #2A971B",
"p. c #2C941B",
"a. c #269B1A",
"s. c #269D1A",
"d. c #289B1B",
"f. c #299A1D",
"g. c #2A9B1E",
"h. c #0BA207",
"j. c #0FA605",
"k. c #17A70E",
"l. c #15A110",
"z. c #14A210",
"x. c #18A310",
"c. c #1AA112",
"v. c #1DA114",
"b. c #1BA614",
"n. c #1DA514",
"m. c #1FA416",
"M. c #1CA811",
"N. c #25A11A",
"B. c #22A519",
"V. c #24A519",
"C. c #27A81B",
"Z. c #27AA1B",
"A. c #28A81B",
"S. c #22B117",
"D. c #23B218",
"F. c #28B21D",
"G. c #298420",
"H. c #2D8923",
"J. c #35832C",
"K. c #279523",
"L. c #2A9426",
"P. c #269A20",
"I. c #2A9C23",
"U. c #349C23",
"Y. c #30902A",
"T. c #378F34",
"R. c #3F9C3C",
"E. c #438C3B",
"W. c #488740",
"Q. c #59844F",
"!. c #558D4F",
"~. c #4B9546",
"^. c #489B44",
"/. c #5B8D53",
"(. c #569255",
"). c #5D9F59",
"_. c #61945A",
"`. c #4AA844",
"'. c #66A262",
"]. c #78A677",
"[. c #848886",
"{. c #878689",
"}. c #8B868F",
"|. c #8E8893",
" X c #8DB98B",
".X c #96B596",
"XX c #9CB898",
"oX c #A0BB9F",
"OX c #A4A9A7",
"+X c #A5AAA7",
"@X c #A9ABAB",
"#X c #A9AAAD",
"$X c #AABCA9",
"%X c #AEBDAC",
"&X c #AEA9B2",
"*X c #BAB9BE",
"=X c #A3C2A1",
"-X c #ACC2AB",
";X c #ACC3AB",
":X c #ACC8AB",
">X c #AECBAD",
",X c #B5C3B2",
"<X c #B6C7B5",
"1X c #B7C5B7",
"2X c #BFD5BE",
"3X c #C0BEC4",
"4X c #C6CBCA",
"5X c #C4D4C3",
"6X c #C4D6C3",
"7X c #CBD7CB",
"8X c #CED4CE",
"9X c #CFD4D0",
"0X c #D2D5D4",
"qX c #D1DAD0",
"wX c #D8DED8",
"eX c #DAE1DA",
"rX c #DFE4DF",
"tX c #E3E7E3",
"yX c #E3E8E3",
"uX c #E5E9E4",
"iX c #E5E9E5",
"pX c #EBECEC",
"aX c #EDECEF",
"sX c #F0F3F0",
"dX c #F6F5F7",
"fX c #F8F5F8",
"gX c #FAF5FB",
"hX c #F8F9F9",
"jX c #FFFCFF",
"kX c white",
"lX c None",
/* pixels */
"7 w l 9 lXU.1.:.0.0.w.lXa l w 9 ",
"l [ w 4.p.) H.J.= S 7.w.F w { l ",
"l y r.y.] ].!.$X$ B # A 0.G s y ",
"l g f.X.! -X-XpXaXrXQ.O D 0.t b ",
"< a.X.L.1XsXiX_./.fX,Xo B 1.J 9 ",
"7 a.#.f.~.2XyX+ P dX%XV % :.q.< ",
"s a.*.#.Q ).kX<X8XqXkXwXC ` y.t ",
"s a.c.#...6.fX5Xp + XXkXW.( g.t ",
"< a.m.z.%.~ >XtX* E.iXeXH O.g.> ",
"7 -.e.z.*.^  XkX7XgX=X9./ V.5.7 ",
"l s Z.m.h.R.9X6X:XoX'.! B.A.y m ",
"s k ] Z.n.;. .K..XT.^.c.F.M d d ",
"m [ y =.D.M.k.b.%._ j.S.6.w } m ",
"7 : ; X K I Y.' I.`.(.L . - > < ",
"lXlXlX}.{.T |.*X3XE U #X&XlXlXlX",
"lXlXlX[.0X4X+XR   Y W @X+XlXlXlX"
};
