/* XPM */
static char *bitcoin32[] = {
/* columns rows colors chars-per-pixel */
"32 32 193 2 ",
"   c #000100",
".  c #181D1C",
"X  c #072308",
"o  c #1A221D",
"O  c #282A2A",
"+  c #363838",
"@  c #0C5C00",
"#  c #155A03",
"$  c #185D0B",
"%  c #175F11",
"&  c #265A19",
"*  c #0A6400",
"=  c #0A6E03",
"-  c #066004",
";  c #136504",
":  c #136A05",
">  c #1C630B",
",  c #166B0A",
"<  c #146008",
"1  c #0E7402",
"2  c #0F7A05",
"3  c #0E740B",
"4  c #057A00",
"5  c #137305",
"6  c #137409",
"7  c #1C750C",
"8  c #157C0C",
"9  c #1D7D0E",
"0  c #146512",
"q  c #136C12",
"w  c #167414",
"e  c #197617",
"r  c #197C16",
"t  c #197618",
"y  c #1A7C18",
"u  c #177915",
"i  c #22650F",
"p  c #236712",
"a  c #226B12",
"s  c #206F1A",
"d  c #28691D",
"f  c #376B1F",
"g  c #217212",
"h  c #237A14",
"j  c #26731E",
"k  c #287D16",
"l  c #35731E",
"z  c #337B1E",
"x  c #2E5B25",
"c  c #3D553F",
"v  c #276E20",
"b  c #2C6F24",
"n  c #34722E",
"m  c #377827",
"M  c #3C6A33",
"N  c #387C33",
"B  c #407B3B",
"V  c #403E44",
"C  c #484C4B",
"Z  c #455349",
"A  c #5B5E5F",
"S  c #525855",
"D  c #5F6363",
"F  c #646867",
"G  c #6C706F",
"H  c #736A76",
"J  c #79797C",
"K  c #77777A",
"L  c #0D8204",
"P  c #0F860B",
"I  c #088803",
"U  c #108C06",
"Y  c #15830C",
"T  c #148B0A",
"R  c #0C9405",
"E  c #089404",
"W  c #17950F",
"Q  c #14990D",
"!  c #199A0F",
"~  c #1E8412",
"^  c #178A13",
"/  c #1C8B12",
"(  c #1C8219",
")  c #1B9412",
"_  c #179E11",
"`  c #199B12",
"'  c #238314",
"]  c #238A15",
"[  c #25841A",
"{  c #2C851A",
"}  c #2D8C1A",
"|  c #208D1C",
" . c #31841D",
".. c #31881F",
"X. c #229B17",
"o. c #239519",
"O. c #2D941B",
"+. c #2D9C1D",
"@. c #209417",
"#. c #13A40E",
"$. c #15AC0C",
"%. c #19AE0E",
"&. c #16A311",
"*. c #1BA214",
"=. c #14A911",
"-. c #1FAC15",
";. c #2BA21C",
":. c #25AD1A",
">. c #2AAB1C",
",. c #22A418",
"<. c #26B21B",
"1. c #2AB51E",
"2. c #25BD1E",
"3. c #29BC1D",
"4. c #23B317",
"5. c #2A8628",
"6. c #318920",
"7. c #398335",
"8. c #388A35",
"9. c #2BAD22",
"0. c #2CA220",
"q. c #29BB21",
"w. c #40883C",
"e. c #25C11D",
"r. c #24C91E",
"t. c #26CE21",
"y. c #23D121",
"u. c #468945",
"i. c #50894C",
"p. c #538D52",
"a. c #5B8958",
"s. c #5B965A",
"d. c #63805D",
"f. c #62985F",
"g. c #658F62",
"h. c #698C64",
"j. c #6D8E6A",
"k. c #669164",
"l. c #649A63",
"z. c #6C956A",
"x. c #72926E",
"c. c #6D8B70",
"v. c #7D9C7C",
"b. c #769473",
"n. c #7D7F81",
"m. c #827687",
"M. c #8B818F",
"N. c #868989",
"B. c #839E84",
"V. c #8D8B91",
"C. c #929595",
"Z. c #83A382",
"A. c #8CA28A",
"S. c #89AA89",
"D. c #94AB93",
"F. c #9AAE99",
"G. c #9DB19C",
"H. c #95B195",
"J. c #9D9FA0",
"K. c #A69EA9",
"L. c #ABADAE",
"P. c #A7BCA7",
"I. c #ADBBAD",
"U. c #A7B5A8",
"Y. c #B0B4B4",
"T. c #B2BDB2",
"R. c #BBBEBF",
"E. c #B5B7B8",
"W. c #ACC0AC",
"Q. c #BBC5BB",
"!. c #C0B5C3",
"~. c #BDC1C2",
"^. c #C1C4C5",
"/. c #C4CDC5",
"(. c #C9CEC9",
"). c #C9D0CA",
"_. c #D5CED7",
"`. c #D2D4D4",
"'. c #D3D9D4",
"]. c #D5D7D8",
"[. c #DBDDDC",
"{. c #DEE3DF",
"}. c #E3E3E4",
"|. c #EBECEC",
" X c #E7E2E8",
".X c #EFEDF0",
"XX c #F0EDF1",
"oX c #F4F2F5",
"OX c #FBF6FC",
"+X c #F7FAFB",
"@X c #FEFEFE",
"#X c #F6F6F8",
"$X c None",
/* pixels */
"$Xw w w 6 w $Xw w $X$X$X+.O.} } {  . .z $X$X$Xw w $Xw w 3 w w q ",
"u r y y t t ( u $X$X;.O.O.{ { { ] { } }  .z $X$Xu ( t y t y u u ",
"w t e e t ( w $X>.+.} [ ' Y 2 r 9 r 9 ~ ] } ..l $Xu ( t t t u w ",
"w t e t ( q $X>.O.k T Y Y 7.z.j 9 h g g g h ] O.l $X3 ( t w t t ",
"e e t ( w $X>.{ ~ T w.k.= Z.@Xi.5 h 7 g a a a ] O.l $Xw ( e e w ",
"w e e t $X<.{ ~ ` 2 T.OXj N +XD.@ d d $ > a a p ~ +.l $Xw t e t ",
"t e y $X2.O.' ` X.U f.@Xk.$ [.|.Q.[.{.T.M > p p i / O.f $X( t w ",
"w r q $X>.k _ W U 4 n XX{.[.@X@X@X@X@X@X'.& i p a a X. .$Xw y w ",
"u ( $X2.} ) ` | p.H.'.+X@XOX/.A.x.T.@X@X@XG $ p a a ~ +.l $Xr t ",
"t w $X>.k ` R a.@X@X@X@X@XB.@ : ; $ /.@X@Xb.# a a g g X.z $Xu e ",
"t q $X;.~ &.Q 5.D.p.P.@X@XW., k k @ W.@X{.x # p 7 g a @.+.$Xw r ",
"( q r.O.) &.` W L I N oX@X.Xb = $ j.oXOX(.D.h.> a a e / ;.l w ( ",
"r $Xe.O.W &.` W ) ) 8 /.@X@Xv.a./.@X@X@X@X@X@XA.; h e ~ >.z $X( ",
"r $X2.} _ _ ` W ) ) 2 Z.@X@X+X@XoXQ.F.I..X@X@XoXn 7 h ~ >.{ $Xr ",
"y $Xe.O._ &.` ` ) ) T w.#X@XOXx.v , : * h.@X@X@Xd.5 h / :...$Xr ",
"( $Xr.O.` &.Q ` ) ) ) 8 ).@X@Xa.1 ' k 9 b |.@X@Xz.5 ' / :.6.$X( ",
"y q $X;.) =._ ` ` ) ) I S.@X@XW.6 [ 8 * v.@X@XOXB Y ~ ) >.$Xw r ",
"e q $X>.' #.&._ ` ) ) U u.OX@X Xt = N G.OX@X@XB.5 ~ ~ *.;.$Xw e ",
"t e $X2.{ &.&.&._ ` W ` 2 ).@XOXG.W.OX@X@X[.k.5 / / / 4.+.$Xu t ",
"w ( 0 $X>.] =.&._ ` _ / 7.'.@X@X@X@X@XOXv.e L / / / ` 1.$Xq ( w ",
"w r w $Xe.{ &.=.&.*.R l.OX@X@XOXoXz.k.@Xz.I @./ / ) 4.;.$Xw t u ",
"e e y q $X3.' &.&.&.E s. XP.p.S.@X7.3 .X'.8 ) ) ) -.1.$Xq y t w ",
"w e t ( $Xy.1.' =.&.=.| 5.I E 8.@XW.4 D.U.y ! ) *.3.0.$Xr e e t ",
"e e t t e $Xy.3.{ &.=.#.&.&.&.^ T.D.P ^ P Q ` ,.3.9.$Xr t t t w ",
"w e e e y e $Xy.t.} / _ &.&.&._ ^ R _ &.` *.4.q.9.$Xu y t e e t ",
"e t t t e y r $X$Xt.q.;.o.) ) ` ` ` X.X.1.q.q.$X$Xe y e t t t u ",
"w w e u t w u y @ $XP #.%.4.<.q.q.<.=.$.Q = $X, y e w t t w t w ",
"$X$X$X$X$X$X$X$Xc F H K c.u.t = q 5.l.B.V.n.Z X $X$X$X$X$X$X$X$X",
"$X$X$X$X$X$X$XJ G O . O V H V.m.!._.L.H G V.~.`.N.$X$X$X$X$X$X$X",
"$X$X$X$X$X$XD +XC.A F F K Y.@X@X#X^.S .       R.@XJ.$X$X$X$X$X$X",
"$X$X$X$X$X$X+ ~.@X@X@X@X+X].C.C . C C.L.Y.E.R.].`.K $X$X$X$X$X$X",
"$X$X$X$X$X$X$X$X$Xn.J A O $X$X$X$X$X$X$X$X$X$X$X$X$X$X$X$X$X$X$X"
};
