/* XPM */
static char *bitcoin64[] = {
/* columns rows colors chars-per-pixel */
"64 64 226 2 ",
"   c #010202",
".  c #070A0A",
"X  c #061608",
"o  c #0E1211",
"O  c #121615",
"+  c #181B1A",
"@  c #16051A",
"#  c #0F2711",
"$  c #18201B",
"%  c #062209",
"&  c #1E1E22",
"*  c #201823",
"=  c #1F2422",
"-  c #222323",
";  c #27282A",
":  c #2E3131",
">  c #3A3C3C",
",  c #333636",
"<  c #2F2E32",
"1  c #074B05",
"2  c #0A5902",
"3  c #125505",
"4  c #135C0B",
"5  c #165708",
"6  c #1E4D14",
"7  c #1A5D13",
"8  c #175D11",
"9  c #164B08",
"0  c #215A1B",
"q  c #23531C",
"w  c #224B1C",
"e  c #0D6C0B",
"r  c #0B6706",
"t  c #116405",
"y  c #13630B",
"u  c #116E0F",
"i  c #1D6E0D",
"p  c #176809",
"a  c #0C7204",
"s  c #0C7A06",
"d  c #0E780A",
"f  c #12710B",
"g  c #1B730D",
"h  c #157B0A",
"j  c #16780A",
"k  c #146B10",
"l  c #1A6B16",
"z  c #1C6817",
"x  c #147313",
"c  c #197617",
"v  c #1D7B12",
"b  c #1A7718",
"n  c #1A7B18",
"m  c #167A12",
"M  c #20630E",
"N  c #236511",
"B  c #226C11",
"V  c #2E6C18",
"C  c #256B1B",
"Z  c #316C19",
"A  c #217312",
"S  c #2B7417",
"D  c #227B14",
"F  c #2E7319",
"G  c #2E7B19",
"H  c #277A19",
"J  c #32741A",
"K  c #327B1C",
"L  c #255D21",
"P  c #2A5C23",
"I  c #275621",
"U  c #2A6426",
"Y  c #2B6928",
"T  c #32632E",
"R  c #347422",
"E  c #337A25",
"W  c #396A37",
"Q  c #3D753C",
"!  c #367334",
"~  c #257623",
"^  c #41693D",
"/  c #4A4C4D",
"(  c #444646",
")  c #56555A",
"_  c #4F5252",
"`  c #486C45",
"'  c #457443",
"]  c #4C7B4B",
"[  c #497648",
"{  c #557453",
"}  c #5B7C5B",
"|  c #5E5F60",
" . c #615964",
".. c #666869",
"X. c #627D61",
"o. c #6F7172",
"O. c #747777",
"+. c #6D6F70",
"@. c #0C8106",
"#. c #0E8C08",
"$. c #14830A",
"%. c #148C0B",
"&. c #1A8D0F",
"*. c #17820C",
"=. c #15940E",
"-. c #169B0F",
";. c #1D8411",
":. c #1B8C11",
">. c #198416",
",. c #1A9412",
"<. c #179E11",
"1. c #199B12",
"2. c #1B9616",
"3. c #0E9308",
"4. c #228414",
"5. c #238B16",
"6. c #2D841A",
"7. c #2C8B1B",
"8. c #288617",
"9. c #31841C",
"0. c #318B1C",
"q. c #229416",
"w. c #229C16",
"e. c #2A941A",
"r. c #269D19",
"t. c #299B1A",
"y. c #269218",
"u. c #30911C",
"i. c #16A311",
"p. c #1AA314",
"a. c #14A911",
"s. c #1FAC18",
"d. c #1FB118",
"f. c #26A41A",
"g. c #2AA31D",
"h. c #24AB1A",
"j. c #29AD1D",
"k. c #20A517",
"l. c #23B31A",
"z. c #24BC1C",
"x. c #28B81D",
"c. c #2E8E23",
"v. c #328324",
"b. c #2C9421",
"n. c #2C9A23",
"m. c #2AA422",
"M. c #27AA22",
"N. c #25B321",
"B. c #24BB20",
"V. c #28B223",
"C. c #1FC919",
"Z. c #1FD51A",
"A. c #23C21C",
"S. c #23CB1C",
"D. c #21D31C",
"F. c #21D81D",
"G. c #25C020",
"H. c #628363",
"J. c #6C8A6C",
"K. c #678667",
"L. c #6F8B70",
"P. c #778C77",
"I. c #739174",
"U. c #7B947C",
"Y. c #779478",
"T. c #7D7E80",
"R. c #7F8182",
"E. c #7E9580",
"W. c #878A8B",
"Q. c #829483",
"!. c #829983",
"~. c #879C88",
"^. c #8B9D8C",
"/. c #889689",
"(. c #8E9591",
"). c #929495",
"_. c #949B97",
"`. c #918895",
"'. c #93A394",
"]. c #9AA59B",
"[. c #97A598",
"{. c #8EA28F",
"}. c #9D9FA0",
"|. c #9EA4A3",
" X c #A2AEA3",
".X c #A4A7A8",
"XX c #AAACAD",
"oX c #A3A6A6",
"OX c #ABB4AD",
"+X c #A6B1A8",
"@X c #AEB4B1",
"#X c #AFB8B1",
"$X c #B3BAB5",
"%X c #B6BABA",
"&X c #BABEBC",
"*X c #B1B4B5",
"=X c #B3AEB7",
"-X c #BCC1BD",
";X c #BFC2C1",
":X c #C2C5C4",
">X c #C5C9C6",
",X c #C7CACB",
"<X c #CBCDCD",
"1X c #C6C7CA",
"2X c #CED2CF",
"3X c #CDCDD0",
"4X c #CFD1D1",
"5X c #D3D5D5",
"6X c #DADBDC",
"7X c #D6D8DA",
"8X c #DFDFE0",
"9X c #E2DFE4",
"0X c #DEE0E2",
"qX c #E3E2E5",
"wX c #E6E5E8",
"eX c #E9E6EA",
"rX c #E6E8E9",
"tX c #EBEAEC",
"yX c #ECEEF0",
"uX c #F1EFF2",
"iX c #EEF1F3",
"pX c #F3F2F4",
"aX c #F9F6F9",
"sX c #FEFEFE",
"dX c #F7F8FA",
"fX c None",
/* pixels */
"fXfXfXfXfXfXfXfXfXfXfXfXfXfXfXfXfXfXfXfXfXfXfXfXfXfXfXc.0.7.7.0.7.9.6.v.v.E fXfXfXfXfXfXfXfXfXfXfXfXfXfXfXfXfXfXfXfXfXfXfXfXfXfX",
"u x x x x x x x x x x x x x x x x x e fXfXfXfXb.n.e.t.t.e.7.7.7.7.6.6.6.6.9.K 9.E fXfXfXfXe x x x x x x x x x x x x x x x x x x ",
"x n n n n n n n n n n n n n n >.x fXfXfXfXt.g.g.t.7.0.9.6.7.6.7.7.7.7.7.7.6.6.K 9.K K R fXfXfXx >.n n n n n n n n n n n n n n x ",
"x c c c b b x b c c x c c n x u fXfXfXt.j.t.e.6.6.G 6.8.4.4.4.4.4.4.4.5.5.y.y.e.6.6.J K K E fXfXk x c c b b b c c c x c c c n x ",
"x c b b b b b b c c c c n x fXfXfXt.j.g.7.9.G G 4.;.;.;.;.;.;.;.v v v v D D 4.5.y.y.7.9.J K J fXfXfXx n b b c c c c b b c c c x ",
"x c c c b b x b c c c n x fXfXn.h.h.e.9.G D 4.:.&.;.:.5.:.h v v v D v v v A A g D 4.y.w.e.J J J E fXfXx n c c c c c c b c c b x ",
"x c c c x b x b c c n x fXfXm.x.f.7.J H 4.&.,.:.&.:.h a p T z v v v A v v D v A A A A 4.y.t.6.F J R fXfXf n c c x b b b b c b c ",
"x c c c b b b b n n x fXfXg.x.t.G F 4.:.,.,.&.$.;.h T L.@X1XT j D v D g A g A A g A A A D 5.t.e.J J R fXfXx n n b b c c c c c x ",
"x b b x c c n x n x fXfXj.z.t.J S :.,.,.$.a l U m h ' qXsXaXK.t D D g D A A A A A g B A B A 4.r.t.J J J fXfXx n c c b b x b b x ",
"x b b b c x b n x fXfXm.x.e.J S :.,.,.h Q Y.%X_.y ;.z -XsXsX X4 v A g A A A B B B B B B B B B v w.t.J J R fXfXc b x b x b b b x ",
"x b b b c c n n fXfXm.z.t.F H ,.,.,.,.f /.aXsX5XU ;.t Q.sXsX7XT g H g g i A A A B B B B B B B B D w.t.J J R fXfXb b b b b b b x ",
"x b b b b c n k fXfXA.f.J S ,.1.,.,.,.@.] tXsXuX} f j [ eXsXpXX.1 M 0 0 P q 5 5 B B B B B B B B B D r.t.J J fXfXu >.b b b b b x ",
"x n b b c n x fXfXl.l.G S ,.1.,.,.,.:.&.C >XsXsX'.y ;.4 %XsXsX#XE.OX;X2X<X-X].{ 9 M V N N B B B B B 4.k.e.Z J fXfXx n b b b b x ",
"x x b x c >.e fXm.A.7.Z 4.-.,.,.,.,.:.,.e '.sXsX2X0 y W OXsXsXdXsXsXsXsXsXsXsXtX_.q M N N N N B B B z 5.h.6.J R fXfXn b x b b x ",
"x b b b n x fXfXA.f.V H 1.1.1.=.,.:.,.q.s ] tXsXeX'.*XeXdXsXsXsXsXsXaXsXsXsXsXsXdX/.9 N N N N N B B B A 1.g.J K fXfXx n b b b x ",
"x n b x n e fXj.z.9.S ,.<.1.,.,.,.,.%.s y W 5XsXsXsXsXsXsXsXsXsXsXsXsXsXsXsXsXsXsX8X^ 5 N M N B B B B B D h.e.J R fXfXn b b b x ",
"x b b b x fXfXA.f.V 4.<.1.=.,.%.s f ! H. X5XuXsXsXsXsXsXsXaXtX5X,X<XeXsXsXsXsXsXsXaX/.9 N N N B B B B A A 2.h.G K fXfXx n b b c ",
"x b n n x fXM.A.6.V 1.1.1.1.m ! J.+X6XpXsXsXsXsXsXsXpXqXOXI.` P 0 0 ` OXdXsXsXsXsXsX$X6 0 N N N M B B B B D h.y.K R fXu n c c x ",
"x c b n fXfXz.l.Z H i.1.1.=.b *XdXsXsXsXsXsXsXsXsXsX&XW 7 t p g A B t q >XsXsXsXsXsX>Xq M N B N B B B A A A w.k.G K fXfXn c c x ",
"x x n x fXfXS.e.V ,.i.1.1.1.d ~.sXsXsXsXsXsXsXsXsXsX2XL j D D A A A S 3 P.sXsXsXsXsX$X6 M N M V B B B A A A :.h.9.K fXfXx n c c ",
"x x n x fXM.S.6.S <.p.1.1.1.#.[ 9X8XOX{.:XdXsXsXsXsXpX} t D v A A A A 5 X.aXsXsXsXsXQ.9 N N N B B B B A g A A h.t.K E fXe n n x ",
"x n >.u fXz.z.Z D i.<.1.1.1.=.~ H.! p r Y :XsXsXsXsXsX[.4 D A v A A D 3 ^.sXsXsXsX-Xw 3 N N B B B B B A A A v k.f.6.K fXfXn n x ",
"x c n fXfXz.h.Z :.p.<.1.1.=.=.&.d %.,.,.a Y.aXsXsXsXsX2XU j D A D B 3 { 8XsXsXsX6XU.` ` P 3 M B i B A A A g A w.h.6.E fXfXn c x ",
"x n x fXfXS.e.Z =.i.<.<.1.1.1.,.,.,.,.,.$.^ qXsXsXsXsXpX{ p D g t 7 J.7XsXsXsXaXwXeXpXeX<XQ.q p B A A A g D D :.l.7.9.fXfXx n x ",
"x n x fXfXS.e.V 1.i.<.1.-.=.1.,.,.:.,.:.:.l %XsXsXsXsXsX'.1 p U X.$XuXsXsXsXsXsXsXsXsXsXsXaXOXq B A g A v A A :.d.e.9.fXfXx n x ",
"x n x fXfXD.7.V i.i.<.<.1.1.=.1.,.,.,.:.:.a U.sXsXsXsXsX<XX.'.4XpXsXsXsXsXsXsXsXsXsXsXsXsXsXaXQ.3 D A g A v v ;.h.w.0.v.fXx n x ",
"x n x fXV.S.G S i.i.<.<.1.1.1.,.=.,.,.:.,.$.' qXsXsXsXsXdXpXsXsXsXsXsXsXpXtXpXsXsXsXsXsXsXsXsX5XT i A D D D v ;.d.t.0.v.fXx n x ",
"x n x fXN.S.6.S i.i.i.<.-.1.1.1.,.,.,.:.:.&.l -XsXsXsXsXsXsXsXsXtX,X].L.{ ` { Q.5XsXsXsXsXsXsXdXH.t D D D j D ;.d.r.0.v.fXx n x ",
"x n x fXV.D.6.S i.i.<.<.<.1.1.=.,.,.,.:.:.,.a Q.sXsXsXsXsXuX>X^.{ C 5 t p p t 2 ^ 2XsXsXsXsXsXsX[.5 D v v D v ;.d.t.u.v.fXx n x ",
"x n x fXfXD.6.S i.i.i.i.-.1.1.,.1.=.,.,.:.,.$.[ wXsXsXsXsXtX{ 1 t h v 4.D D D 4.2 J.aXsXsXsXsXsX$X7 v v v ;.v &.d.g.u.v.fXx n x ",
"x n x fXfXD.e.V <.i.i.<.<.<.1.-.1.,.=.,.,.:.&.z :XsXsXsXsXsX^.y 4.D v v D g D D g ^ wXsXsXsXsXsX-X0 v ;.v ;.;.:.l.r.u.fXfXx n x ",
"x n x fXfXD.r.Z 1.i.i.i.i.<.1.1.,.1.,.,.:.,.,.a !.sXsXsXsXsX>XN h ;.D v v v v D j ^ eXsXsXsXsXsXOXp v ;.v ;.;.,.l.t.b.fXfXx n x ",
"x n n fXfXC.j.Z :.a.i.i.<.<.<.1.1.=.1.=.,.,.,.@.[ eXsXsXsXsXtX[ f 4.;.v v v 4.D 2 ^.sXsXsXsXsXsX!.t 4.;.;.;.;.1.l.e.0.fXfXn c x ",
"x n n fXfXC.z.F 4.a.i.i.i.<.<.1.1.1.,.,.,.,.,.&.C >XsXsXsXsXsX!.t 5.v ;.4.;.h 2 K.eXsXsXsXsXsX9X^ f ;.;.;.;.;.s.l.e.0.fXfX>.c c ",
"x x n x fXN.D.6.F i.i.i.i.<.<.<.1.1.1.,.,.,.:.,.a ^.sXsXsXsXsX:Xz ;.4.;.h t Y ^.rXsXsXsXsXsXdXQ.t ;.;.;.;.:.:.d.f.t.c.fXx n c x ",
"x n n x fXfXD.r.V 1.a.i.i.i.i.<.1.1.1.=.,.,.,.2.@.] tXsXaXsXsXeX' a a p ! U.2XaXsXsXsXsXsXpX^.7 ;.:.;.;.;.&.2.l.f.t.fXfXx n c x ",
"x c c n fXfXC.l.J 4.a.i.i.i.i.<.<.1.1.=.=.,.,.,.,.~ 1XsXsXsXsXsX!.L K. X7XaXsXsXsXsXsXsX7XL.8 h ;.;.:.;.&.&.s.h.e.b.fXfXb n x x ",
"x c n n x fXN.D.7.S i.i.i.i.i.i.<.<.1.<.1.=.1.,.1.f {.sXsXsXsXsX6X5XdXsXsXsXsXsXsXdXqX[.W t :.:.;.:.:.:.:.,.l.h.t.b.fXu n b n x ",
"x n b n x fXfXD.h.Z 5.a.i.i.i.i.i.<.<.1.1.1.1.-.#.r ^.sXsXsXsXsXsXsXsXsXsXsXsXaX4X^.Q y h :.:.:.:.:.&.:.:.p.l.r.g.fXfXx n c c c ",
"x c c x n fXfXz.C.7.S i.a.i.i.p.<.<.<.1.1.1.*.c Q U.9XsXsXsXsXsXsXsXsXsXpXpXsXaXY.2 h :.:.:.&.:.:.:.:.&.,.d.h.t.b.fXfXn c c b x ",
"x c c c b x fXfXD.l.F 4.a.a.a.i.i.<.<.<.<.-.~ .XqXdXsXsXsXsXsXsXsXpX5X XH.#XsXsX#Xk :.:.:.:.&.:.:.&.,.&.h.l.t.j.fXfXx n c b b x ",
"x c c b b n fXfXN.D.e.F ,.a.i.i.i.i.<.i.<.-.n ;XsXsXsXsXsXdXtXdXsX6X' r r L.dXsX6XQ $.,.:.&.,.:.,.,.&.p.l.h.f.b.fXfXn c c b c x ",
"x c b b c n x fXfXA.C.6.G 1.a.a.i.i.i.i.i.i.d  XsXsXdXrX:XE.J.0XsXpXH.s =.Q 9XsXaXJ.a ,.:.,.,.,.,.&.1.h.h.f.m.fXfXx n c b b b x ",
"x c b b c c >.e fXM.F.l.G D p.a.i.i.i.i.i.i.@.~.wX-XE.' l s k -XsXsX+Xu 1.l $XsXsX#Xl ,.,.,.,.,.,.1.h.l.f.j.b.fXe >.c c x b b b ",
"x b x b c c b n fXfXN.Z.h.F 8.i.a.i.a.i.i.p.#.Q ' x s #.1.p.@.E.sXsX5XY =.s Y.dXsX<XT %.1.,.=.,.,.h.l.k.j.n.fXfXn n b b b x c x ",
"x b b b b c b n x fXfXB.Z.f.G 4.i.a.i.i.i.i.<.%.3.<.p.p.1.1.3.' wXsXpXH.@.=.Q @XU.' c &.1.,.,.1.s.h.h.h.m.fXfXx b x b b b b b b ",
"u b x b c c c c n x fXfXB.Z.h.G 8.1.a.p.a.i.p.i.p.<.<.<.<.1.<.c :XsXaX[.x 1.m l s #.,.1.=.2.1.h.h.h.j.j.fXfXx n b x b x b b b x ",
"x b b c c c c c c n x fXfXB.Z.l.6.G 2.a.a.i.i.i.i.i.i.<.i.<.p.@.U.*XI.Q m <.1.-.<.1.<.1.1.p.h.h.h.x.m.fXfXe n b b b b b b c c x ",
"x b b b x b b b b b n u fXfXB.Z.z.e.G 4.1.a.a.i.i.i.i.i.i.i.i.=.b x s 3.<.<.1.1.1.1.<.1.s.h.h.l.z.M.fXfXu n n b x b x b b x n x ",
"x b b x b b b x x b b n x fXfXV.D.C.h.7.6.5.1.i.a.a.i.i.i.i.<.p.<.i.p.p.<.<.p.1.<.1.k.h.f.h.x.x.n.fXfXx n b b b b b b b b b c x ",
"x b b b b b b b n b x b >.x fXfXfXG.D.C.g.y.6.5.,.<.p.i.p.i.i.p.i.i.p.i.<.<.1.p.r.f.h.h.l.z.M.fXfXfXx n c b c c b b b n b b b c ",
"x b x b x b b b b b b b b n c fXfXfXV.A.Z.z.h.y.7.7.y.q.q.1.1.1.1.1.1.w.w.w.f.f.h.h.l.z.x.m.fXfXfXx n c c c c c x b b x b b b x ",
"x b n b b b n b n c n c c c n n x fXfXfXV.G.Z.C.z.h.r.t.e.e.e.y.t.y.t.r.f.h.l.l.A.A.l.m.fXfXfXx >.n c b n c n n c b c n b b n x ",
"u x x b x x x b x x x c x x k c c x y fXfXfXb m.G.D.D.S.C.z.z.d.z.z.z.A.A.S.G.B.g.~ fXfXfXy x x x x x x c x x x x x c x x x x x ",
"fXfXfXfXfXfXfXfXfXfXfXfXfXfXfXfXfXfXX X & & @ . X 1 x r.M.B.G.C.G.G.z.p.2.u 1 X   fXfXfXfX% fXfXfXfXfXfXfXfXfXfXfXfXfXfXfXfXfXfX",
"fXfXfXfXfXfXfXfXfXfXfXfXfXfXfXfX- ..).|..XXX@X%X@X`.) *   . # # % X + ,  .`.=X1X3X;X@X).| < . fXfXfXfXfXfXfXfXfXfXfXfXfXfXfXfXfX",
"fXfXfXfXfXfXfXfXfXfXfXfXfXfX+ ...X)...> - = : / O.|.,X4XXX..< ; ) ).1XiXsXsX7X@XXX*X3XiXsXtX&XR.>   fXfXfXfXfXfXfXfXfXfXfXfXfXfX",
"fXfXfXfXfXfXfXfXfXfXfXfXfX- W.:Xo..   . o o . .     . ( W.%X4XrXsXsXsXrX_.( o         ; o.,XsXsX8X)., fXfXfXfXfXfXfXfXfXfXfXfXfX",
"fXfXfXfXfXfXfXfXfXfXfXfXO o.0X3X/ .             o $ / W.;XrXdXsXsXsX,X/     . o O O O o   ; (.tXsXsX@X( fXfXfXfXfXfXfXfXfXfXfXfX",
"fXfXfXfXfXfXfXfXfXfXfXfX- ).iXdXqX;XXX.XoXXX@X%X:X6XdXsXsXsXsXsX0X7XyX0XXX+.: o             / <XdXdXtXW.+ fXfXfXfXfXfXfXfXfXfXfX",
"fXfXfXfXfXfXfXfXfXfXfXfXfX..7XsXsXsXsXsXsXsXsXsXsXsXsXsXtX:X(._ - + / ).<XyXiX7X&X}.W.R.W.oX7XsXsXsX<X| fXfXfXfXfXfXfXfXfXfXfXfX",
"fXfXfXfXfXfXfXfXfXfXfXfXfXfX..&XiXsXsXsXsXsXsXsXpX7X@XO.> o     . o     . , +.oX2XrXsXsXsXsXdXqX,X_.( fXfXfXfXfXfXfXfXfXfXfXfXfX",
"fXfXfXfXfXfXfXfXfXfXfXfXfXfXfXfX/ O.W.).).(.T...( &     . o O O o O O + o         + > _ ) ) ( , fXfXfXfXfXfXfXfXfXfXfXfXfXfXfXfX",
"fXfXfXfXfXfXfXfXfXfXfXfXfXfXfXfXfXfXfXfXfXfXfXfXfXfXfXfXfXfXfXfXfXfXfXfXfXfXfXfXfXfXfXfXfXfXfXfXfXfXfXfXfXfXfXfXfXfXfXfXfXfXfXfX"
};
