/* XPM */
static char * bitcoin64_xpm[] = {
"64 64 654 2",
"  	c None",
". 	c #72DF6E",
"+ 	c #70DB6C",
"@ 	c #6ED56A",
"# 	c #6CD068",
"$ 	c #6ACA66",
"% 	c #68C564",
"& 	c #66C062",
"* 	c #63BA60",
"= 	c #61B75F",
"- 	c #60B35D",
"; 	c #5EAF5B",
"> 	c #5DAA5A",
", 	c #5BA759",
"' 	c #59A357",
") 	c #589F56",
"! 	c #579B54",
"~ 	c #559653",
"{ 	c #5F9B5C",
"] 	c #649F63",
"^ 	c #659F63",
"/ 	c #5F9C5D",
"( 	c #71DE6D",
"_ 	c #6FD96B",
": 	c #6DD369",
"< 	c #6BCE67",
"[ 	c #69C966",
"} 	c #67C364",
"| 	c #65BF62",
"1 	c #63B860",
"2 	c #61B55E",
"3 	c #60B15C",
"4 	c #5EAD5B",
"5 	c #5CA95A",
"6 	c #5AA558",
"7 	c #59A156",
"8 	c #589D56",
"9 	c #569954",
"0 	c #51934F",
"a 	c #72A971",
"b 	c #8BBB89",
"c 	c #A4CDA2",
"d 	c #B1D6AF",
"e 	c #ADD4AC",
"f 	c #ACD4AB",
"g 	c #B1D6B0",
"h 	c #A6CEA5",
"i 	c #8DBC8B",
"j 	c #74AA73",
"k 	c #549552",
"l 	c #589D55",
"m 	c #8BBB8A",
"n 	c #B0D5AE",
"o 	c #AAD5A9",
"p 	c #AAD7A8",
"q 	c #AAD8A8",
"r 	c #A8D8A6",
"s 	c #A7D8A5",
"t 	c #A5D8A4",
"u 	c #A5D8A3",
"v 	c #A6D7A4",
"w 	c #A6D7A5",
"x 	c #A8D6A6",
"y 	c #A9D4A7",
"z 	c #8FBD8D",
"A 	c #64A063",
"B 	c #5AA157",
"C 	c #569553",
"D 	c #8CBC8B",
"E 	c #AED5AE",
"F 	c #AAD7A9",
"G 	c #AAD9A9",
"H 	c #A4D7A2",
"I 	c #A1D69F",
"J 	c #9ED59C",
"K 	c #9DD59B",
"L 	c #9CD59A",
"M 	c #9BD599",
"N 	c #9BD499",
"O 	c #9CD49A",
"P 	c #9FD59D",
"Q 	c #A3D6A2",
"R 	c #A6D5A5",
"S 	c #4F924D",
"T 	c #6AA468",
"U 	c #ABD1A9",
"V 	c #AAD6A8",
"W 	c #A6D8A5",
"X 	c #A1D7A0",
"Y 	c #9ED69C",
"Z 	c #9AD599",
"` 	c #97D395",
" .	c #95D393",
"..	c #94D391",
"+.	c #92D290",
"@.	c #92D28F",
"#.	c #93D291",
"$.	c #97D396",
"%.	c #9AD498",
"&.	c #9ED49C",
"*.	c #A2D6A0",
"=.	c #A5D4A4",
"-.	c #7CB77A",
";.	c #569854",
">.	c #5CA759",
",.	c #7EB27C",
"'.	c #ADD6AC",
").	c #ABD9AA",
"!.	c #A9D9A7",
"~.	c #A3D7A1",
"{.	c #99D597",
"].	c #91D28F",
"^.	c #8ED18D",
"/.	c #8DD18A",
"(.	c #8BD088",
"_.	c #89D087",
":.	c #89CF86",
"<.	c #89CF87",
"[.	c #8ACF88",
"}.	c #8CD089",
"|.	c #8ED08C",
"1.	c #92D18F",
"2.	c #99D397",
"3.	c #90CD8E",
"4.	c #5BAA59",
"5.	c #579C55",
"6.	c #87B785",
"7.	c #ABD5A9",
"8.	c #A7D8A6",
"9.	c #A1D79F",
"0.	c #96D394",
"a.	c #87D084",
"b.	c #86CF84",
"c.	c #84CF82",
"d.	c #84CF81",
"e.	c #85D083",
"f.	c #85CF83",
"g.	c #85CF82",
"h.	c #86CE83",
"i.	c #87CE84",
"j.	c #8DCF8A",
"k.	c #90D18F",
"l.	c #95D293",
"m.	c #90CE8E",
"n.	c #60B75D",
"o.	c #589C55",
"p.	c #7CB17A",
"q.	c #ABD5AA",
"r.	c #A0D69E",
"s.	c #9AD598",
"t.	c #94D392",
"u.	c #8ED18C",
"v.	c #8AD087",
"w.	c #86D083",
"x.	c #84D081",
"y.	c #9ACE97",
"z.	c #B7D1B5",
"A.	c #A7D7A6",
"B.	c #84D181",
"C.	c #83D081",
"D.	c #83D080",
"E.	c #83CF81",
"F.	c #83CF82",
"G.	c #86CE84",
"H.	c #8DD08B",
"I.	c #89CD87",
"J.	c #61B95E",
"K.	c #62B85F",
"L.	c #5FAF5C",
"M.	c #67A366",
"N.	c #AED5AD",
"O.	c #A8D9A6",
"P.	c #99D598",
"Q.	c #93D391",
"R.	c #8DD28A",
"S.	c #87D085",
"T.	c #98CE96",
"U.	c #B6DAB5",
"V.	c #81D07F",
"W.	c #BBD9BA",
"X.	c #FFFFFF",
"Y.	c #D8F0D7",
"Z.	c #7FD07C",
"`.	c #81D07E",
" +	c #81D17E",
".+	c #82D07F",
"++	c #82D080",
"@+	c #84CE82",
"#+	c #85CE82",
"$+	c #87CE85",
"%+	c #80CA7E",
"&+	c #63BA5F",
"*+	c #5DAB5A",
"=+	c #60B15D",
"-+	c #539451",
";+	c #A9D1A9",
">+	c #ABD8AA",
",+	c #AAD9A8",
"'+	c #A2D7A0",
")+	c #9BD699",
"!+	c #8CD28A",
"~+	c #86D183",
"{+	c #A6D0A5",
"]+	c #F2F9F2",
"^+	c #7ACF77",
"/+	c #97CD95",
"(+	c #72CE6F",
"_+	c #80D17C",
":+	c #7FD27D",
"<+	c #80D17D",
"[+	c #80D07D",
"}+	c #80D07E",
"|+	c #81CF7E",
"1+	c #82CF7F",
"2+	c #83CE81",
"3+	c #78C776",
"4+	c #64BD61",
"5+	c #63BB60",
"6+	c #61B75E",
"7+	c #5BA659",
"8+	c #559553",
"9+	c #60B25D",
"0+	c #87B886",
"a+	c #ABDAAA",
"b+	c #A4D8A3",
"c+	c #9DD69B",
"d+	c #95D492",
"e+	c #8ED28B",
"f+	c #87D185",
"g+	c #84D182",
"h+	c #8BCD88",
"i+	c #FDF9FD",
"j+	c #7ED17B",
"k+	c #F9F1F9",
"l+	c #A2D59F",
"m+	c #A5CEA4",
"n+	c #A8D1A7",
"o+	c #96CD93",
"p+	c #78D175",
"q+	c #7FD17D",
"r+	c #71C56E",
"s+	c #65BE62",
"t+	c #64BC61",
"u+	c #63B960",
"v+	c #579E55",
"w+	c #5A9958",
"x+	c #AFD5AE",
"y+	c #A0D79E",
"z+	c #98D596",
"A+	c #8FD38E",
"B+	c #89D187",
"C+	c #84D282",
"D+	c #83D280",
"E+	c #79D376",
"F+	c #EBE9EB",
"G+	c #B7DEB6",
"H+	c #ADD1AC",
"I+	c #EFEDEF",
"J+	c #FFFEFF",
"K+	c #F2EFF2",
"L+	c #91D38E",
"M+	c #7FD27C",
"N+	c #68C265",
"O+	c #65C062",
"P+	c #65BE61",
"Q+	c #62B65E",
"R+	c #86B884",
"S+	c #A4D8A2",
"T+	c #9CD69A",
"U+	c #94D492",
"V+	c #8CD289",
"W+	c #86D184",
"X+	c #81D27F",
"Y+	c #80D27E",
"Z+	c #94CD92",
"`+	c #ACD0AB",
" @	c #E3E7E2",
".@	c #7ECE7B",
"+@	c #65C261",
"@@	c #66C162",
"#@	c #579E56",
"$@	c #61B65E",
"%@	c #4B8F49",
"&@	c #AADAA8",
"*@	c #98D597",
"=@	c #8FD38D",
"-@	c #88D186",
";@	c #85D183",
">@	c #D2D9D2",
",@	c #F1E8F0",
"'@	c #FBF9FB",
")@	c #E2F6E1",
"!@	c #BAEAB8",
"~@	c #B0E7AE",
"{@	c #D4EFD4",
"]@	c #BEE8BC",
"^@	c #7CD27A",
"/@	c #71CA6E",
"(@	c #67C464",
"_@	c #66C263",
":@	c #64BC60",
"<@	c #63B85F",
"[@	c #6CA66A",
"}@	c #A8D9A5",
"|@	c #95D493",
"1@	c #8DD28B",
"2@	c #87D284",
"3@	c #E3E6E3",
"4@	c #74D571",
"5@	c #75D672",
"6@	c #78D874",
"7@	c #78D875",
"8@	c #71D66E",
"9@	c #B5DDB3",
"0@	c #D3F0D2",
"a@	c #79D176",
"b@	c #7DD17A",
"c@	c #67C764",
"d@	c #67C564",
"e@	c #64BB60",
"f@	c #62B95F",
"g@	c #5EAF5C",
"h@	c #569953",
"i@	c #84B682",
"j@	c #ACDAAA",
"k@	c #A5D9A3",
"l@	c #93D491",
"m@	c #8BD288",
"n@	c #86D284",
"o@	c #83D281",
"p@	c #A9D8A7",
"q@	c #ABE3A9",
"r@	c #8ED98C",
"s@	c #DBECDA",
"t@	c #A8E5A6",
"u@	c #78D974",
"v@	c #76D972",
"w@	c #76D872",
"x@	c #87D184",
"y@	c #FDFBFD",
"z@	c #BAE8B8",
"A@	c #7AD378",
"B@	c #71CD6E",
"C@	c #69C965",
"D@	c #68C664",
"E@	c #64BE61",
"F@	c #63BC61",
"G@	c #60B45E",
"H@	c #99C697",
"I@	c #A3D8A1",
"J@	c #9BD698",
"K@	c #91D48F",
"L@	c #89D286",
"M@	c #86D283",
"N@	c #82D37F",
"O@	c #81D57E",
"P@	c #7FD67C",
"Q@	c #94CF91",
"R@	c #CBEFC9",
"S@	c #75DA71",
"T@	c #76DA71",
"U@	c #74DA70",
"V@	c #70DA6C",
"W@	c #ACD0AA",
"X@	c #79D576",
"Y@	c #78D375",
"Z@	c #68CB65",
"`@	c #68C764",
" #	c #62B75F",
".#	c #5AA357",
"+#	c #ADD3AB",
"@#	c #ABDAA9",
"##	c #A2D8A1",
"$#	c #99D697",
"%#	c #90D38E",
"&#	c #88D286",
"*#	c #83D481",
"=#	c #82D47F",
"-#	c #7FD47E",
";#	c #7FD67B",
">#	c #7DD679",
",#	c #F9FDF9",
"'#	c #69D965",
")#	c #6CDE68",
"!#	c #7DD979",
"~#	c #AED1AC",
"{#	c #F8F4F8",
"]#	c #E1F0E0",
"^#	c #A7D6A4",
"/#	c #68CD64",
"(#	c #6BCC67",
"_#	c #69CA66",
":#	c #68C865",
"<#	c #66C364",
"[#	c #66C063",
"}#	c #64BA60",
"|#	c #4E924C",
"1#	c #B1D7B0",
"2#	c #ABDBA9",
"3#	c #A2D8A0",
"4#	c #90D48D",
"5#	c #88D285",
"6#	c #85D283",
"7#	c #84D481",
"8#	c #80D67D",
"9#	c #7ED67C",
"0#	c #DDE5DD",
"a#	c #BADCB8",
"b#	c #E2E1E2",
"c#	c #F4EEF5",
"d#	c #F7F4F7",
"e#	c #6ACA67",
"f#	c #69C865",
"g#	c #5DAA59",
"h#	c #63B95F",
"i#	c #559552",
"j#	c #B0D6AE",
"k#	c #82D57F",
"l#	c #81D67E",
"m#	c #7FD77C",
"n#	c #7DD879",
"o#	c #B6DAB4",
"p#	c #FDFFFE",
"q#	c #DFF7DF",
"r#	c #F7FBF7",
"s#	c #68C866",
"t#	c #66C464",
"u#	c #66C163",
"v#	c #62B960",
"w#	c #549651",
"x#	c #B0D6AF",
"y#	c #ACDBAA",
"z#	c #A3D9A1",
"A#	c #9AD698",
"B#	c #91D48E",
"C#	c #86D384",
"D#	c #82D480",
"E#	c #80D67E",
"F#	c #7ED87A",
"G#	c #94D291",
"H#	c #EDFBEC",
"I#	c #A8EBA6",
"J#	c #7EE17A",
"K#	c #66DA61",
"L#	c #70DB6B",
"M#	c #69D764",
"N#	c #91DC8F",
"O#	c #FFFCFF",
"P#	c #B0E2AE",
"Q#	c #69C866",
"R#	c #4C904A",
"S#	c #A4D9A3",
"T#	c #9CD799",
"U#	c #92D590",
"V#	c #8AD388",
"W#	c #87D383",
"X#	c #84D482",
"Y#	c #83D580",
"Z#	c #7ED87B",
"`#	c #7CD879",
" $	c #F9F0F9",
".$	c #FAFCFA",
"+$	c #6CDC68",
"@$	c #76DF72",
"#$	c #75DD71",
"$$	c #75DB72",
"%$	c #70D86D",
"&$	c #6CD668",
"*$	c #BEDCBC",
"=$	c #CFEDCE",
"-$	c #66C762",
";$	c #A7D0A5",
">$	c #A7DAA5",
",$	c #9ED79B",
"'$	c #94D592",
")$	c #8CD38A",
"!$	c #87D384",
"~$	c #85D483",
"{$	c #82D67F",
"]$	c #81D77D",
"^$	c #81DE7D",
"/$	c #77DD74",
"($	c #75DB71",
"_$	c #6FD86B",
":$	c #6ED66A",
"<$	c #67D563",
"[$	c #C6D8C4",
"}$	c #BFE8BE",
"|$	c #7AB578",
"1$	c #AEDAAC",
"2$	c #A9DBA7",
"3$	c #A0D89E",
"4$	c #97D695",
"5$	c #8FD48C",
"6$	c #88D385",
"7$	c #86D383",
"8$	c #83D680",
"9$	c #80D77D",
"0$	c #B7DAB5",
"a$	c #AAE8A7",
"b$	c #72D96E",
"c$	c #6ED76A",
"d$	c #6ED66B",
"e$	c #68C765",
"f$	c #549B52",
"g$	c #7AC078",
"h$	c #AFDCAD",
"i$	c #9AD799",
"j$	c #91D590",
"k$	c #86D484",
"l$	c #85D482",
"m$	c #83D581",
"n$	c #81D67D",
"o$	c #63D65F",
"p$	c #72D56F",
"q$	c #8DCD8A",
"r$	c #C3D6C2",
"s$	c #F7F4F8",
"t$	c #CAECC9",
"u$	c #63C660",
"v$	c #5CB659",
"w$	c #6FC06C",
"x$	c #85CB84",
"y$	c #91D28E",
"z$	c #96D694",
"A$	c #94D691",
"B$	c #8BD588",
"C$	c #89D586",
"D$	c #88D685",
"E$	c #85D682",
"F$	c #7ED57C",
"G$	c #79D375",
"H$	c #70D16D",
"I$	c #F9F1FA",
"J$	c #DADED9",
"K$	c #F4ECF4",
"L$	c #FFFEFE",
"M$	c #C3EAC2",
"N$	c #60C65C",
"O$	c #62B65F",
"P$	c #63BE60",
"Q$	c #61BE5D",
"R$	c #62C05F",
"S$	c #67C763",
"T$	c #66C863",
"U$	c #6BCB67",
"V$	c #88C986",
"W$	c #B1CFAF",
"X$	c #F8F7F7",
"Y$	c #F1FAF0",
"Z$	c #BCE8BB",
"`$	c #7AD177",
" %	c #67C964",
".%	c #549452",
"+%	c #589E55",
"@%	c #66C363",
"#%	c #72C96F",
"$%	c #F8F1F8",
"%%	c #F4FCF4",
"&%	c #C5ECC3",
"*%	c #E4EFE4",
"=%	c #A6E0A5",
"-%	c #6ACB66",
";%	c #589E56",
">%	c #559753",
",%	c #67C363",
"'%	c #6BC768",
")%	c #F8F0F8",
"!%	c #FBFDFB",
"~%	c #C6EBC4",
"{%	c #D5EAD4",
"]%	c #C4EAC3",
"^%	c #66CB63",
"/%	c #A9D3A8",
"(%	c #D7F0D6",
"_%	c #69C665",
":%	c #9FD59E",
"<%	c #74CC70",
"[%	c #5CC458",
"}%	c #68C964",
"|%	c #90C98E",
"1%	c #FCFDFC",
"2%	c #5CC658",
"3%	c #83C780",
"4%	c #59C255",
"5%	c #5FB15C",
"6%	c #5BA559",
"7%	c #70C76D",
"8%	c #FCF6FC",
"9%	c #74CB71",
"0%	c #64C760",
"a%	c #F9EFF9",
"b%	c #CFECCD",
"c%	c #71C96E",
"d%	c #5EC55A",
"e%	c #E3E4E3",
"f%	c #CEECCD",
"g%	c #69C565",
"h%	c #5BC257",
"i%	c #65C361",
"j%	c #579B55",
"k%	c #5DC25A",
"l%	c #64C361",
"m%	c #59A157",
"n%	c #549553",
"o%	c #569A54",
"p%	c #71DF6D",
"q%	c #6DD469",
"r%	c #6BCF67",
"s%	c #5EAE5B",
"t%	c #59A257",
"u%	c #579A54",
"v%	c #559652",
"w%	c #4C844B",
"x%	c #4F8B4E",
"y%	c #518D4F",
"z%	c #4F8C4E",
"A%	c #4D864C",
"B%	c #5CAA5A",
"C%	c #61B65F",
"D%	c #6BCF68",
"E%	c #6DD46A",
"F%	c #899091",
"G%	c #888E8C",
"H%	c #808787",
"I%	c #9FA6A6",
"J%	c #7E8383",
"K%	c #878C8C",
"L%	c #A4AAA8",
"M%	c #858B8A",
"N%	c #4E5454",
"O%	c #676C6D",
"P%	c #A8AEAD",
"Q%	c #858B8C",
"R%	c #B6BBBE",
"S%	c #A6ABAB",
"T%	c #707577",
"U%	c #6E7475",
"V%	c #868C8E",
"W%	c #A9AFAD",
"X%	c #A9AFAF",
"Y%	c #838989",
"Z%	c #717777",
"`%	c #888D8E",
" &	c #596061",
".&	c #818788",
"+&	c #B0B5B6",
"@&	c #939899",
"#&	c #B3B9BA",
"$&	c #AFB4B6",
"%&	c #A8ADAE",
"&&	c #AAB0B0",
"*&	c #B3BABC",
"=&	c #B0B5B7",
"                                                                                                                                ",
"                                                                                                                                ",
"                                                                                                                                ",
"                                                                                                                                ",
"                                                                                                                                ",
"                                                                                                                                ",
"                                                                                                                                ",
"                                                                                                                                ",
"                                                                                                                                ",
"                                                                                                                                ",
"                                                                                                                                ",
"                                                                                                                                ",
". + @ # $ % & * = - ; > , ' ) ! ~                           { ] ^ /                           ~ ! ) ' , > ; - = * & % $ # @ + . ",
"( _ : < [ } | 1 2 3 4 5 6 7 8 9                   0 a b c d e f f e g h i j k                   9 8 7 6 5 4 3 2 1 | } [ < : _ ( ",
"( _ : < [ } | 1 2 3 4 5 6 7 l                 / m n o p q r s t u u v w x y n z A                 l 7 6 5 4 3 2 1 | } [ < : _ ( ",
"( _ : < [ } | 1 2 3 4 5 6 B               C D E F G s H I J K L M N O K P I Q R f z S               B 6 5 4 3 2 1 | } [ < : _ ( ",
"( _ : < [ } | 1 2 3 4 5 6               T U V G W X Y Z `  ...+.+.@.+.#. .$.%.&.*.=.-.;.              6 5 4 3 2 1 | } [ < : _ ( ",
"( _ : < [ } | 1 2 3 4 5 >.            ,.'.).!.~.J {. .].^./.(._.:.:.<.[.}.|.1. .2.J 3.4.5.            >.5 4 3 2 1 | } [ < : _ ( ",
"( _ : < [ } | 1 2 3 4 >             6.7.).8.9.M 0.]./._.a.b.c.d.e.f.g.g.h.i.<.j.k.l.m.n.4 o.            > 4 3 2 1 | } [ < : _ ( ",
"( _ : < [ } | 1 2 3 4             p.q.).s r.s.t.u.v.w.x.x.y.z.A.B.C.D.E.F.c.g.G.:.H.I.J.K.4 5.            4 3 2 1 | } [ < : _ ( ",
"( _ : < [ } | 1 2 3 L.          M.N.).O.r.P.Q.R.S.T.z.U.V.W.X.Y.Z.`. +.+.+++++@+#+$+%+&+* K.*+;.          L.3 2 1 | } [ < : _ ( ",
"( _ : < [ } | 1 2 =+          -+;+>+,+'+)+Q.!+S.~+{+X.]+^+/+X.X.(+_+:+<+[+}+|+1+2+@+3+4+5+* 6+7+8+          =+2 1 | } [ < : _ ( ",
"( _ : < [ } | 1 2 9+          0+V a+b+c+d+e+f+w.g+h+i+X.<+j+k+X.l+m+n+o+p+q+[+}+1+E.r+s+t+5+u+9+v+          9+2 1 | } [ < : _ ( ",
"( _ : < [ } | 1 2           w+x+).!.y+z+A+B+~+C+D+E+F+X.G+H+I+X.J+X.X.X.K+L+M+Z.}+x.N+O+P+t+* K.> ~           2 1 | } [ < : _ ( ",
"( _ : < [ } | 1 Q+          R+F a+S+T+U+V+W+X+Y+Z+`+ @X.X.X.X.X.X.X.X.X.X.X.Y+j+Z..@+@@@| 4+5+u+- #@          Q+1 | } [ < : _ ( ",
"( _ : < [ } | 1 $@        %@e ).&@9.*@=@-@;@>@,@'@X.X.X.X.X.)@!@~@{@X.X.X.X.]@^@j+/@(@_@O+s+:@* K.>.k         $@1 | } [ < : _ ( ",
"( _ : < [ } | <@          [@q.a+}@Y |@1@2@M+3@X.X.X.X.X.X.4@5@6@7@8@9@X.X.X.0@a@b@c@d@} @@| 4+e@f@g@h@          <@| } [ < : _ ( ",
"( _ : < [ } | <@          i@F j@k@T+l@m@n@o@p@q@r@s@X.X.X.t@u@v@v@w@x@y@X.X.z@A@B@C@D@(@_@O+E@F@u+G@l           <@| } [ < : _ ( ",
"( _ : < [ } | &+          H@).j@I@J@K@L@M@C+N@O@P@Q@X.X.X.R@S@T@U@V@W@X.X.X.X@Y@Z@[ `@d@_@& E@t+*  #.#          &+| } [ < : _ ( ",
"( _ : < [ } | *           +#).@###$#%#&#M@*#=#-#;#>#k+X.X.,#'#)#!#~#{#X.X.]#^#/#(#_#:#% <#[#| t+* K.,           * | } [ < : _ ( ",
"( _ : < [ } | }#        |#1#a+2#3#$#4#5#6#7#=#8#9#6@0#X.X.X.a#b#c#X.X.X.X.X.X.d#}+e#f#D@<#@@| 4+5+f@g#~         e@| } [ < : _ ( ",
"( _ : < [ } | h#        i#j#j@2###$#4#5#M@7#k#l#m#n#o#X.X.X.X.X.X.p#q#r#X.X.X.X.J+$ s#D@t#u#| 4+e@v#*+k         h#| } [ < : _ ( ",
"( _ : < [ } | h#        w#x#j@y#z#A#B#&#C#7#D#E#m#F#G#X.X.X.H#I#J#K#L#M#N#O#X.X.X.P#Q#D@t#u#| 4+e@v#*+k         h#| } [ < : _ ( ",
"( _ : < [ } | e@        R#1#a+y#S#T#U#V#W#X#Y#O@8#Z#`# $X.X..$+$@$#$$$%$&$*$X.X.X.=$-$D@<#@@| 4+5+f@g#~         e@| } [ < : _ ( ",
"( _ : < [ } | }#          ;$).y#>$,$'$)$!$~$*#{$]$Z#u@0#X.X.X.^$/$($_$:$<$[$X.X.X.}$c@% <#[#| t+* K.,           }#| } [ < : _ ( ",
"( _ : < [ } | h#          |$1$y#2$3$4$5$6$7$X#8$l#9$Z#0$X.X.X.a$b$c$d$<$Z+d#X.X.X.C#e$d@_@& E@t+*  #.#          h#| } [ < : _ ( ",
"( _ : < [ } | <@          f$g$s h$z#i$j$V#k$l$m${$n$m#l.X.X.X.R@o$p$q$r$s$X.X.X.t$u$D@(@_@O+E@F@u+G@l           <@| } [ < : _ ( ",
"( _ : < [ } | <@          h@L.v$w$x$y$z$A$B$C$D$E$F$G$H$I$X.X.,#J$K$L$X.X.X.X.M$N$e$d@} @@| 4+e@f@g@h@          <@| } [ < : _ ( ",
"( _ : < [ } | 1 O$        k >.K.* t+P$Q$R$(@D@S$T$U$V$W$X$X.X.X.X.X.X.X.Y$Z$`$ %:#D@(@_@O+s+:@* K.>..%        O$1 | } [ < : _ ( ",
"( _ : < [ } | 1 Q+          +%- u+5+4+| @@@%(@D@f##%$%X.X.X.X.X.%%&%*%X.=%-%[ f#D@(@@%@@| 4+5+u+- ;%          Q+1 | } [ < : _ ( ",
"( _ : < [ } | 1 2           >%> K.* t+P+O+_@,%d@D@'%)%X.!%~%{%X.]%^%/%X.(%T$:#D@d@,%_@O+P+t+* K.> ~           2 1 | } [ < : _ ( ",
"( _ : < [ } | 1 2 9+          #@9+u+5+t+s+O+_@,%(@_%:%<%[%}%|%X.1%2%3%X.X.4%D@(@,%_@O+s+t+5+u+9+#@          9+2 1 | } [ < : _ ( ",
"( _ : < [ } | 1 2 5%          8+6%6+* 5+4+s+O+_@@%(@% D@`@:#7%8%X.9%0%a%b%c%(@@%_@O+s+4+5+* 6+7+8+          5%2 1 | } [ < : _ ( ",
"( _ : < [ } | 1 2 3 L.          ;.*+K.* e@4+s+O+@@_@} (@d@% d%e%f%.@g%h%i%} _@@@O+s+4+e@* K.*+;.          L.3 2 1 | } [ < : _ ( ",
"( _ : < [ } | 1 2 3 4             j%4 K.* 5+t+E@| O+@@_@_@<#(@k%l%(@} _@_@@@O+| E@t+5+* K.4 5.            4 3 2 1 | } [ < : _ ( ",
"( _ : < [ } | 1 2 3 4 >             o.4 K.* 5+t+4+s+| O+& [#@@u#u#@@[#& O+| s+4+t+5+* K.4 o.            > 4 3 2 1 | } [ < : _ ( ",
"( _ : < [ } | 1 2 3 4 5 >.            j%*+6+u+* 5+:@4+E@E@| | | | | | E@E@4+:@5+* u+6+*+j%            >.5 4 3 2 1 | } [ < : _ ( ",
"( _ : < [ } | 1 2 3 4 5 6               ;.7+9+K.u+* e@F@t+t+4+4+4+4+t+t+F@e@* u+K.9+7+;.              6 5 4 3 2 1 | } [ < : _ ( ",
"( _ : < [ } | 1 2 3 4 5 6 m%              8+#@> - K.u+u+* 5+5+e@e@5+5+* u+u+K.- > #@n%              m%6 5 4 3 2 1 | } [ < : _ ( ",
"( _ : < [ } | 1 2 3 4 5 6 7 8                 ~ +%>.g@G@K.K.f@v#v#f@K.K.G@g@>.;%~                 8 7 6 5 4 3 2 1 | } [ < : _ ( ",
"( _ : < [ } | 1 2 3 4 5 6 7 8 9                   ~ o%;%.#, g#*+*+g#>..#;%9 n%                  9 8 7 6 5 4 3 2 1 | } [ < : _ ( ",
"p%_ q%r%[ (@| u+$@9+s%> 7+t%;%u%v%                        w%x%y%y%z%A%                        8+u%;%t%7+B%s%9+C%u+| (@[ D%E%_ p%",
"                                                                      F%G%                                                      ",
"                                              H%I%          J%K%L%M%N%      O%P%Q%                                              ",
"                                              R%S%T%  U%V%W%X%Y%Z%`% &        .&+&@&                                            ",
"                                                  #&$&                  %&&&*&=&                                                ",
"                                                                                                                                ",
"                                                                                                                                ",
"                                                                                                                                ",
"                                                                                                                                ",
"                                                                                                                                ",
"                                                                                                                                ",
"                                                                                                                                ",
"                                                                                                                                "};
