/* XPM */
static char * bitcoin16_xpm[] = {
"16 16 81 1",
" 	c None",
".	c #6FD86B",
"+	c #66C063",
"@	c #5EAF5C",
"#	c #59A157",
"$	c #A6D1A5",
"%	c #A0D19E",
"&	c #9DD19C",
"*	c #A4D0A3",
"=	c #5FB05C",
"-	c #A5D6A4",
";	c #96D394",
">	c #96D495",
",	c #82CE7E",
"'	c #8ED18A",
")	c #90CD8F",
"!	c #60B25C",
"~	c #A8D7A6",
"{	c #8AD287",
"]	c #8CD389",
"^	c #E7F0E7",
"/	c #A7DAA5",
"(	c #84D181",
"_	c #7DCB7B",
":	c #62B75F",
"<	c #61B25D",
"[	c #65BF62",
"}	c #A5D0A4",
"|	c #9BD799",
"1	c #A6D8A5",
"2	c #E8F2E8",
"3	c #D2F4CF",
"4	c #D4F2D3",
"5	c #B3E5B1",
"6	c #6DC869",
"7	c #64BE61",
"8	c #5DAC5B",
"9	c #A4D3A3",
"0	c #95D594",
"a	c #87D584",
"b	c #A6E3A4",
"c	c #D4ECD2",
"d	c #F2FAF0",
"e	c #F2FBF2",
"f	c #67C863",
"g	c #65C062",
"h	c #60B35E",
"i	c #A1D19E",
"j	c #85D583",
"k	c #97DE94",
"l	c #DBF7D9",
"m	c #51D14D",
"n	c #E5F6E4",
"o	c #B9E5B7",
"p	c #60BE5D",
"q	c #68B164",
"r	c #74C571",
"s	c #70C96D",
"t	c #8CD58A",
"u	c #FFFEFF",
"v	c #E0F5DF",
"w	c #A9E1A7",
"x	c #6BC768",
"y	c #5EAC5B",
"z	c #61B25E",
"A	c #66C062",
"B	c #74CA71",
"C	c #BAE0B8",
"D	c #92D890",
"E	c #7ACB77",
"F	c #6AC268",
"G	c #65BE62",
"H	c #59A057",
"I	c #59A357",
"J	c #5EAD5C",
"K	c #61B05F",
"L	c #5DA75B",
"M	c #8F9495",
"N	c #707A75",
"O	c #5F6965",
"P	c #787E7F",
"                ",
"                ",
"                ",
".+@#  $%&*  #@+.",
".+=  -;>,')  =+.",
".+! ~{]^/(_: <+.",
".[ }|12345678 [.",
".[ 90abcdefgh [.",
".[ i|jklmnoph [.",
".[ qrstuvwx7y [.",
".+z :ABCDEg: z+.",
".+=  :7+FG:  =+.",
".+@H  IJKL  H@+.",
"      MNOP      ",
"                ",
"                "};
